<svg width="668" height="124" viewBox="0 0 668 124" fill="none" xmlns="http://www.w3.org/2000/svg">
<g clip-path="url(#clip0_48_223)">
<mask id="mask0_48_223" style="mask-type:luminance" maskUnits="userSpaceOnUse" x="0" y="0" width="668" height="124">
<path d="M667.964 0H0.0380859V123.971H667.964V0Z" fill="white"/>
</mask>
<g mask="url(#mask0_48_223)">
<path d="M70.6611 66.1642V65.8858C70.7454 60.5573 69.7261 55.2696 67.6667 50.3547C65.8331 45.998 63.1586 42.0455 59.796 38.7236C56.6126 35.61 52.851 33.1493 48.7224 31.4802C44.7224 29.8352 40.4409 28.9839 36.1157 28.9737C32.831 28.936 29.5619 29.4298 26.4348 30.4358C23.6293 31.3529 20.9591 32.6412 18.4951 34.2663C16.1174 35.8532 13.9421 37.7243 12.0175 39.838C10.1121 41.9158 8.38778 44.1523 6.86344 46.5241V0H0.0380859V101.684H6.86505V86.3641C8.38355 88.6339 10.0839 90.7768 11.9493 92.7714C13.8663 94.8257 16.0168 96.649 18.357 98.2042C20.8333 99.8347 23.5306 101.102 26.3665 101.967C33.7314 104.17 41.6323 103.752 48.7236 100.784C52.8585 99.0644 56.6197 96.5573 59.7972 93.4014C63.1507 90.0453 65.8233 86.072 67.6674 81.7008C69.7272 76.7843 70.7465 71.4943 70.6611 66.1642ZM63.2785 66.4425C63.346 70.7874 62.614 75.1076 61.1192 79.1879C59.8121 82.7362 57.7982 85.9826 55.1989 88.7292C52.702 91.3225 49.6888 93.363 46.3541 94.7191C42.8818 96.128 39.166 96.838 35.419 96.8086C31.7063 96.809 28.0328 96.0504 24.6238 94.5799C17.5075 91.5761 11.8546 85.8991 8.88089 78.7704C7.22024 74.8265 6.39127 70.5824 6.44576 66.3033V66.025C6.38652 61.7683 7.21589 57.5461 8.88089 53.6281C10.4167 50.0457 12.614 46.7852 15.3579 44.0167C18.0134 41.3493 21.1598 39.2209 24.6238 37.7485C28.0097 36.29 31.6558 35.5319 35.3425 35.5199C39.0292 35.5079 42.6803 36.2422 46.0757 37.6787C49.4324 39.0962 52.4656 41.1823 54.9904 43.8101C57.6351 46.6006 59.6953 49.8921 61.0498 53.4905C62.5787 57.5395 63.335 61.8389 63.2785 66.1665V66.4425ZM100.61 12.1184V2.7861H92.1132V12.119L100.61 12.1184ZM99.7737 101.684V30.6443H92.9467V101.684H99.7737ZM161.9 100.431V94.0232C160.156 94.8457 158.337 95.4988 156.467 95.9732C154.823 96.3523 153.14 96.5393 151.452 96.5307C147.273 96.5307 143.861 95.5094 141.214 93.4665C138.567 91.424 137.244 87.8487 137.244 82.7409V36.9127H162.178V30.6443H137.245V7.93953H130.418V30.6443H120.112V36.9127H130.42V83.4368C130.353 86.4119 130.873 89.3713 131.952 92.145C132.865 94.4568 134.293 96.5299 136.128 98.2074C137.962 99.8849 140.154 101.122 142.538 101.825C145.068 102.585 147.698 102.961 150.339 102.94C152.376 102.96 154.409 102.75 156.398 102.313C158.29 101.867 160.133 101.237 161.901 100.431H161.9ZM182.655 68.9504H241.578C241.656 68.5368 241.703 68.1177 241.717 67.6966V66.165C241.765 61.1732 240.988 56.2081 239.419 51.4692C237.999 47.167 235.778 43.1726 232.872 39.6973C230.062 36.3712 226.57 33.6873 222.633 31.827C218.401 29.8723 213.782 28.8971 209.121 28.9737C204.5 28.9279 199.928 29.928 195.749 31.899C191.707 33.8157 188.085 36.5139 185.092 39.838C182.011 43.2851 179.602 47.2776 177.988 51.6103C176.251 56.2171 175.377 61.1042 175.411 66.0274V66.3057C175.341 71.4997 176.287 76.6577 178.197 81.4887C179.933 85.8505 182.514 89.8261 185.791 93.187C188.964 96.4162 192.753 98.9742 196.935 100.709C201.147 102.471 205.671 103.371 210.237 103.355C217.017 103.355 222.704 102.101 227.301 99.5924C231.905 97.0795 236.069 93.8335 239.629 89.9814L234.893 85.8023C231.914 88.9652 228.46 91.644 224.655 93.7417C220.801 95.8779 216.088 96.9458 210.517 96.9458C207.062 96.9591 203.636 96.3209 200.418 95.0644C197.225 93.819 194.312 91.9497 191.849 89.5658C189.258 87.034 187.135 84.0628 185.581 80.7901C183.838 77.0737 182.845 73.0506 182.656 68.9504H182.655ZM182.655 62.8225C182.901 59.0523 183.797 55.3531 185.301 51.8875C186.678 48.667 188.585 45.7005 190.944 43.1111C193.198 40.6656 195.922 38.6993 198.954 37.3304C202.212 35.9172 205.732 35.2055 209.284 35.2415C212.835 35.2776 216.34 36.0605 219.57 37.5394C222.554 39.0077 225.19 41.0972 227.301 43.6674C229.426 46.2854 231.076 49.2554 232.176 52.443C233.347 55.7926 234.072 59.282 234.332 62.8213L182.655 62.8225ZM312.897 78.9805V78.7018C312.897 75.266 312.2 72.3407 310.807 69.9265C309.456 67.5606 307.658 65.4797 305.514 63.7987C303.292 62.0772 300.858 60.6498 298.27 59.5518C295.577 58.3913 292.931 57.3928 290.331 56.5574C288.288 55.907 286.361 55.257 284.55 54.607C282.909 54.0292 281.305 53.3549 279.744 52.5873C278.528 52.0102 277.402 51.2595 276.401 50.359C276.012 50.0207 275.699 49.6035 275.483 49.1354C275.266 48.667 275.152 48.1581 275.147 47.6426V47.3576C275.145 46.6296 275.322 45.9125 275.662 45.2688C276.002 44.6251 276.495 44.0747 277.098 43.6662C278.398 42.6912 280.348 42.2039 282.948 42.2039C285.641 42.2039 288.752 42.8308 292.281 44.0853C296.048 45.4499 299.684 47.1514 303.146 49.1692L311.225 34.5432C307.062 31.8138 302.538 29.6806 297.783 28.2055C293.123 26.7072 288.261 25.9321 283.366 25.907C279.757 25.8781 276.165 26.3946 272.71 27.439C269.556 28.3852 266.62 29.9483 264.074 32.0377C261.491 34.1601 259.426 36.8445 258.038 39.8862C256.65 42.9276 255.975 46.2462 256.065 49.5886V49.867C256.065 53.4886 256.738 56.5527 258.084 59.059C259.379 61.5033 261.156 63.6591 263.308 65.3966C265.48 67.1356 267.897 68.5438 270.481 69.5756C273.055 70.6185 275.682 71.5248 278.352 72.2917C280.394 72.9416 282.344 73.5454 284.202 74.1028C285.88 74.5964 287.531 75.1774 289.148 75.8439C290.414 76.3363 291.573 77.0694 292.561 78.0028C292.958 78.3787 293.275 78.8323 293.49 79.3357C293.705 79.8387 293.816 80.3805 293.814 80.9277V81.2065C293.826 82.0074 293.634 82.7981 293.256 83.505C292.879 84.2114 292.328 84.8104 291.655 85.246C290.216 86.2672 287.964 86.7781 284.899 86.7781C281.013 86.7098 277.17 85.9552 273.547 84.5493C269.195 82.8934 265.093 80.6435 261.358 77.8632L252.304 91.7929C261.431 99.0134 272.705 102.984 284.342 103.075C288.129 103.102 291.902 102.61 295.556 101.613C298.844 100.731 301.939 99.2431 304.68 97.2246C307.28 95.275 309.36 92.7158 310.739 89.7728C312.178 86.7561 312.898 83.158 312.898 78.9793L312.897 78.9805ZM406.504 64.4929V64.2146C406.504 57.9926 405.552 52.4905 403.65 47.708C401.929 43.215 399.35 39.0993 396.057 35.5898C393.007 32.3646 389.301 29.8245 385.193 28.1378C381.173 26.4791 376.866 25.6271 372.517 25.6301C366.945 25.6301 362.325 26.7678 358.657 29.043C354.993 31.315 351.801 34.2717 349.255 37.7512V27.0229H328.082V123.971H349.255V91.9329C351.899 95.0194 355.027 97.6542 358.519 99.7336C362.187 101.962 366.854 103.076 372.518 103.076C376.913 103.089 381.268 102.237 385.334 100.569C389.427 98.8927 393.108 96.3503 396.127 93.1172C399.381 89.5921 401.937 85.4792 403.65 80.9987C405.552 76.2167 406.504 70.7145 406.504 64.4929ZM385.331 64.4929C385.377 67.3916 384.881 70.2735 383.869 72.9899C382.966 75.3801 381.619 77.5774 379.899 79.467C378.279 81.241 376.311 82.6633 374.118 83.6457C371.899 84.6105 369.504 85.1084 367.084 85.1084C364.663 85.1084 362.269 84.6105 360.049 83.6457C357.871 82.6735 355.924 81.2488 354.338 79.467C352.645 77.5437 351.323 75.324 350.438 72.9201C349.437 70.2245 348.942 67.3681 348.975 64.4929V64.2146C348.942 61.3394 349.437 58.4831 350.438 55.7875C351.323 53.3827 352.646 51.1626 354.339 49.2389C355.924 47.4572 357.871 46.0325 360.05 45.0603C362.27 44.0955 364.664 43.5976 367.084 43.5976C369.504 43.5976 371.899 44.0955 374.119 45.0603C376.311 46.0427 378.279 47.465 379.9 49.2389C381.63 51.147 382.978 53.3694 383.87 55.7859C384.87 58.4819 385.366 61.3386 385.332 64.2142L385.331 64.4929ZM491.754 66.4406V66.1622C491.774 61.0003 491.044 55.8631 489.594 50.9094C488.237 46.194 485.967 41.7919 482.91 37.9544C479.84 34.1541 475.963 31.0861 471.556 28.9737C467.004 26.745 461.618 25.6307 455.396 25.6307C450.409 25.5524 445.458 26.5295 440.875 28.498C436.288 30.4664 432.171 33.3818 428.792 37.0529C425.491 40.662 422.915 44.8701 421.202 49.4499C419.379 54.2546 418.458 59.3546 418.485 64.4937V64.7721C418.411 70.1378 419.403 75.4648 421.41 80.4424C423.28 85.0115 426.052 89.1569 429.56 92.6307C433.101 96.1041 437.319 98.8072 441.957 100.57C446.912 102.46 452.181 103.405 457.486 103.356C464.268 103.356 470.164 102.126 475.178 99.665C480.15 97.2375 484.529 93.7413 487.994 89.427L475.876 78.7014C473.332 81.1069 470.415 83.0827 467.24 84.5513C464.24 85.8007 461.014 86.417 457.764 86.3625C453.028 86.3625 449.061 85.1319 445.854 82.6711C442.651 80.2103 440.538 76.5652 439.518 71.7357H491.476C491.57 70.7145 491.636 69.8324 491.683 69.0895C491.73 68.3466 491.754 67.4638 491.754 66.4406ZM471.14 58.5011H439.24C440.075 53.672 441.863 49.8184 444.603 46.9397C447.343 44.0606 450.942 42.6214 455.4 42.6214C459.857 42.6214 463.433 44.0841 466.126 47.0094C468.816 49.9348 470.49 53.7661 471.14 58.5031V58.5011ZM577.145 66.4406V66.1622C577.164 61.0003 576.435 55.8631 574.984 50.9094C573.628 46.194 571.358 41.7919 568.3 37.9544C565.23 34.1539 561.349 31.0859 556.947 28.9737C552.395 26.745 547.008 25.6307 540.787 25.6307C535.796 25.5524 530.848 26.5296 526.261 28.498C521.679 30.4665 517.562 33.3819 514.183 37.0529C510.882 40.662 508.306 44.8701 506.589 49.4499C504.766 54.2546 503.845 59.3546 503.872 64.4937V64.7721C503.797 70.1378 504.793 75.4648 506.797 80.4424C508.667 85.0115 511.438 89.1569 514.947 92.6307C518.487 96.1041 522.71 98.8072 527.344 100.57C532.303 102.46 537.572 103.405 542.876 103.356C549.655 103.356 555.551 102.126 560.565 99.665C565.54 97.2371 569.915 93.7413 573.381 89.427L561.263 78.7014C558.723 81.1069 555.806 83.0827 552.626 84.5513C549.627 85.8007 546.405 86.417 543.155 86.3625C538.419 86.3625 534.447 85.1319 531.244 82.6711C528.041 80.2103 525.928 76.5652 524.905 71.7365H576.862C576.956 70.7153 577.027 69.8328 577.074 69.0899C577.121 68.347 577.145 67.4642 577.145 66.4406ZM556.527 58.5011H524.631C525.466 53.672 527.253 49.8184 529.994 46.9397C532.734 44.0606 536.329 42.6214 540.791 42.6214C545.248 42.6214 548.82 44.0841 551.513 47.0094C554.206 49.9348 555.88 53.7661 556.527 58.5031V58.5011ZM667.965 101.682V0H646.791V36.7734C644.148 33.6872 641.02 31.0527 637.527 28.9737C633.861 26.745 629.192 25.6307 623.531 25.6307C619.132 25.6183 614.781 26.4702 610.715 28.1378C606.618 29.8144 602.937 32.3565 599.918 35.5898C596.664 39.115 594.112 43.2279 592.395 47.708C590.494 52.4905 589.541 57.9926 589.541 64.2146V64.4929C589.541 70.7149 590.494 76.2171 592.395 80.9995C594.116 85.4926 596.696 89.6081 599.989 93.118C603.039 96.3429 606.744 98.8829 610.852 100.57C614.871 102.228 619.179 103.08 623.527 103.077C629.102 103.077 633.72 101.939 637.39 99.6642C641.051 97.3919 644.246 94.4352 646.791 90.9559V101.682L667.965 101.682ZM647.069 64.4929C647.101 67.3681 646.607 70.2245 645.607 72.9201C644.721 75.324 643.4 77.5437 641.706 79.467C640.118 81.2488 638.174 82.6735 635.994 83.6457C633.775 84.6105 631.38 85.1084 628.961 85.1084C626.538 85.1084 624.146 84.6105 621.924 83.6457C619.732 82.6633 617.764 81.241 616.145 79.467C614.412 77.559 613.067 75.3366 612.174 72.9201C611.174 70.2245 610.68 67.3681 610.711 64.4929V64.2146C610.668 61.3159 611.162 58.4341 612.174 55.7177C613.079 53.3275 614.424 51.1301 616.145 49.2409C617.764 47.4666 619.732 46.0443 621.924 45.0618C624.146 44.097 626.538 43.5992 628.961 43.5992C631.38 43.5992 633.775 44.097 635.994 45.0618C638.174 46.0341 640.118 47.4587 641.706 49.2409C643.4 51.1638 644.721 53.3835 645.607 55.7875C646.607 58.4831 647.101 61.3394 647.069 64.2146V64.4929Z" fill="black"/>
</g>
</g>
<defs>
<clipPath id="clip0_48_223">
<rect width="668" height="124" fill="white"/>
</clipPath>
</defs>
</svg>
